<mxfile host="app.diagrams.net" modified="2023-11-09T17:36:38.552Z" agent="Mozilla/5.0 (Windows NT 10.0; Win64; x64) AppleWebKit/537.36 (KHTML, like Gecko) Chrome/119.0.0.0 Safari/537.36" etag="EzTdB86rDkNzQaoNjD5a" version="22.1.0" type="github">
  <diagram name="PÃ¡gina-1" id="nHQ0Ud0_Ng8JSyLOOdBA">
    <mxGraphModel dx="1434" dy="796" grid="1" gridSize="10" guides="1" tooltips="1" connect="1" arrows="1" fold="1" page="1" pageScale="1" pageWidth="827" pageHeight="1169" math="0" shadow="0">
      <root>
        <mxCell id="0" />
        <mxCell id="1" parent="0" />
        <mxCell id="oaHyUiJunF6Cut4uvbYh-8" value="List" style="swimlane;fontStyle=0;childLayout=stackLayout;horizontal=1;startSize=26;horizontalStack=0;resizeParent=1;resizeParentMax=0;resizeLast=0;collapsible=1;marginBottom=0;align=center;fontSize=14;strokeColor=#FF6392;fontColor=#5AA9E6;fillColor=#FFE45E;" parent="1" vertex="1">
          <mxGeometry x="70" y="170" width="160" height="180" as="geometry" />
        </mxCell>
        <mxCell id="oaHyUiJunF6Cut4uvbYh-9" value="Item 1" style="text;strokeColor=none;fillColor=none;spacingLeft=4;spacingRight=4;overflow=hidden;rotatable=0;points=[[0,0.5],[1,0.5]];portConstraint=eastwest;fontSize=12;whiteSpace=wrap;html=1;fontColor=#5AA9E6;" parent="oaHyUiJunF6Cut4uvbYh-8" vertex="1">
          <mxGeometry y="26" width="160" height="30" as="geometry" />
        </mxCell>
        <mxCell id="oaHyUiJunF6Cut4uvbYh-11" value="Item 3" style="text;strokeColor=none;fillColor=none;spacingLeft=4;spacingRight=4;overflow=hidden;rotatable=0;points=[[0,0.5],[1,0.5]];portConstraint=eastwest;fontSize=12;whiteSpace=wrap;html=1;fontColor=#5AA9E6;" parent="oaHyUiJunF6Cut4uvbYh-8" vertex="1">
          <mxGeometry y="56" width="160" height="124" as="geometry" />
        </mxCell>
        <mxCell id="oaHyUiJunF6Cut4uvbYh-12" value="" style="edgeStyle=entityRelationEdgeStyle;fontSize=12;html=1;endArrow=ERone;endFill=1;rounded=0;strokeColor=#FF6392;fontColor=#5AA9E6;fillColor=#FFE45E;" parent="1" edge="1">
          <mxGeometry width="100" height="100" relative="1" as="geometry">
            <mxPoint x="480" y="430" as="sourcePoint" />
            <mxPoint x="580" y="330" as="targetPoint" />
            <Array as="points">
              <mxPoint x="390" y="450" />
            </Array>
          </mxGeometry>
        </mxCell>
        <mxCell id="oaHyUiJunF6Cut4uvbYh-13" value="List" style="swimlane;fontStyle=0;childLayout=stackLayout;horizontal=1;startSize=26;horizontalStack=0;resizeParent=1;resizeParentMax=0;resizeLast=0;collapsible=1;marginBottom=0;align=center;fontSize=14;strokeColor=#FF6392;fontColor=#5AA9E6;fillColor=#FFE45E;" parent="1" vertex="1">
          <mxGeometry x="330" y="350" width="160" height="116" as="geometry" />
        </mxCell>
        <mxCell id="oaHyUiJunF6Cut4uvbYh-14" value="Item 1" style="text;strokeColor=none;fillColor=none;spacingLeft=4;spacingRight=4;overflow=hidden;rotatable=0;points=[[0,0.5],[1,0.5]];portConstraint=eastwest;fontSize=12;whiteSpace=wrap;html=1;fontColor=#5AA9E6;" parent="oaHyUiJunF6Cut4uvbYh-13" vertex="1">
          <mxGeometry y="26" width="160" height="30" as="geometry" />
        </mxCell>
        <mxCell id="oaHyUiJunF6Cut4uvbYh-15" value="Item 2" style="text;strokeColor=none;fillColor=none;spacingLeft=4;spacingRight=4;overflow=hidden;rotatable=0;points=[[0,0.5],[1,0.5]];portConstraint=eastwest;fontSize=12;whiteSpace=wrap;html=1;fontColor=#5AA9E6;" parent="oaHyUiJunF6Cut4uvbYh-13" vertex="1">
          <mxGeometry y="56" width="160" height="30" as="geometry" />
        </mxCell>
        <mxCell id="oaHyUiJunF6Cut4uvbYh-16" value="Item 3" style="text;strokeColor=none;fillColor=none;spacingLeft=4;spacingRight=4;overflow=hidden;rotatable=0;points=[[0,0.5],[1,0.5]];portConstraint=eastwest;fontSize=12;whiteSpace=wrap;html=1;fontColor=#5AA9E6;" parent="oaHyUiJunF6Cut4uvbYh-13" vertex="1">
          <mxGeometry y="86" width="160" height="30" as="geometry" />
        </mxCell>
      </root>
    </mxGraphModel>
  </diagram>
</mxfile>
